<svg xmlns="http://www.w3.org/2000/svg" width="1200" height="900" viewBox="0 0 1200 900" fill="none">
  <rect width="1200" height="900" rx="52" fill="#121212"/>
  <rect x="40" y="40" width="1120" height="820" rx="36" fill="url(#bg1)" stroke="#2A2A2A"/>
  <circle cx="950" cy="210" r="170" fill="#F97316" fill-opacity=".18"/>
  <circle cx="250" cy="700" r="230" fill="#00D4FF" fill-opacity=".12"/>
  <path d="M720 220C625 270 530 395 518 520C512 587 540 650 612 676C694 706 794 660 860 588C938 502 986 364 954 274C929 204 817 170 720 220Z" fill="#F5F5F4" fill-opacity=".08"/>
  <text x="96" y="154" fill="#F97316" font-family="Arial, sans-serif" font-size="30" letter-spacing="8">RUNNERS CIRCLE OS</text>
  <text x="96" y="246" fill="#F5F5F4" font-family="Arial, sans-serif" font-size="78" font-weight="700">IMAGE ASSET</text>
  <text x="96" y="322" fill="#D6D3D1" font-family="Arial, sans-serif" font-size="30">Velocity Dawn Hero Frame</text>
  <rect x="96" y="386" width="208" height="48" rx="24" fill="#F97316" fill-opacity=".16" stroke="#F97316" stroke-opacity=".4"/>
  <text x="146" y="418" fill="#FDBA74" font-family="Arial, sans-serif" font-size="22">READY</text>
  <text x="96" y="760" fill="#E7E5E4" font-family="Arial, sans-serif" font-size="26">Premium dark placeholder for generated still media</text>
  <text x="96" y="804" fill="#A8A29E" font-family="Arial, sans-serif" font-size="20">Athletic tech visual language with orange velocity accents</text>
  <defs>
    <linearGradient id="bg1" x1="86" y1="72" x2="1094" y2="844" gradientUnits="userSpaceOnUse">
      <stop stop-color="#171717"/>
      <stop offset="1" stop-color="#262626"/>
    </linearGradient>
  </defs>
</svg>
